<svg width="23" height="15" viewBox="0 0 23 15" fill="none" xmlns="http://www.w3.org/2000/svg">
<g clip-path="url(#clip0_14870_12394)">
<path d="M21.3103 -0.508179H1.72518C0.772363 -0.508179 0 0.311434 0 1.32255V13.6766C0 14.6877 0.772363 15.5073 1.72518 15.5073H21.3103C22.263 15.5073 23.0355 14.6877 23.0355 13.6766V1.32255C23.0355 0.311434 22.2631 -0.508179 21.3103 -0.508179Z" fill="#41479B"/>
<path d="M23.0116 1.01995C22.8756 0.152973 22.1659 -0.508179 21.3103 -0.508179H20.8614L13.5035 4.6074V-0.508131H9.53191V4.60744L2.17406 -0.508131H1.72518C0.869588 -0.508131 0.159853 0.152973 0.0238903 1.02L6.31266 5.39235H0V9.60696H6.31266L0.0238903 13.9792C0.159853 14.8462 0.869588 15.5073 1.72518 15.5073H2.17406L9.53191 10.3918V15.5073H13.5035V10.3918L20.8614 15.5073H21.3103C22.1659 15.5073 22.8756 14.8462 23.0116 13.9792L16.7228 9.60686H23.0355V5.39225H16.7228L23.0116 1.01995Z" fill="#F5F5F5"/>
<path d="M12.8955 -0.50647H10.4777V6.05075H0.000488281V8.50973H10.4777V15.0669H12.8955V8.50973H23.3728V6.05075H12.8955V-0.50647Z" fill="#FF4B55"/>
<path d="M1.1321 14.9512L9.64942 9.32843H8.16912L0.421387 14.4432C0.610967 14.6683 0.854596 14.8446 1.1321 14.9512Z" fill="#FF4B55"/>
<path d="M15.8128 9.32843H14.3325L22.582 14.7744C22.8129 14.6202 23.0055 14.412 23.1429 14.1674L15.8128 9.32843Z" fill="#FF4B55"/>
<path d="M0.185547 0.478137L7.38576 5.23153H8.86607L0.707132 -0.154785C0.488063 0.0110475 0.308799 0.227855 0.185547 0.478137Z" fill="#FF4B55"/>
<path d="M15.181 5.23175L22.9429 0.107516C22.7512 -0.116767 22.5057 -0.29207 22.2263 -0.396667L13.7007 5.23175H15.181Z" fill="#FF4B55"/>
</g>
<defs>
<clipPath id="clip0_14870_12394">
<rect width="22.8158" height="14.7632" rx="3.06302" fill="white"/>
</clipPath>
</defs>
</svg>
